<svg preserveAspectRatio="none" overflow="visible" style="display: block;" width="26" height="26" viewBox="0 0 26 26" fill="none" xmlns="http://www.w3.org/2000/svg">
<g id="icon/pip">
<path id="Vector" d="M2.16667 10.8333V6.5C2.16667 5.92536 2.39494 5.37426 2.80127 4.96794C3.2076 4.56161 3.7587 4.33333 4.33333 4.33333H21.6667C22.2413 4.33333 22.7924 4.56161 23.1987 4.96794C23.6051 5.37426 23.8333 5.92536 23.8333 6.5V19.5C23.8333 20.0746 23.6051 20.6257 23.1987 21.0321C22.7924 21.4384 22.2413 21.6667 21.6667 21.6667H15.1667" stroke="#0B0E14" stroke-width="2.38333" stroke-linecap="round" stroke-linejoin="round"/>
<path id="Vector_2" d="M11.9167 14.0833H3.25C2.65169 14.0833 2.16667 14.5684 2.16667 15.1667V20.5833C2.16667 21.1816 2.65169 21.6667 3.25 21.6667H11.9167C12.515 21.6667 13 21.1816 13 20.5833V15.1667C13 14.5684 12.515 14.0833 11.9167 14.0833Z" stroke="#0B0E14" stroke-width="2.38333" stroke-linecap="round" stroke-linejoin="round"/>
</g>
</svg>
